<svg id="visual" viewBox="0 0 900 600" width="900" height="600" xmlns="http://www.w3.org/2000/svg" xmlns:xlink="http://www.w3.org/1999/xlink" version="1.1"><rect x="0" y="0" width="900" height="600" fill="#161517"></rect><defs><linearGradient id="grad1_0" x1="33.3%" y1="0%" x2="100%" y2="100%"><stop offset="20%" stop-color="#161517" stop-opacity="1"></stop><stop offset="80%" stop-color="#161517" stop-opacity="1"></stop></linearGradient></defs><defs><linearGradient id="grad2_0" x1="0%" y1="0%" x2="66.7%" y2="100%"><stop offset="20%" stop-color="#161517" stop-opacity="1"></stop><stop offset="80%" stop-color="#161517" stop-opacity="1"></stop></linearGradient></defs><g transform="translate(900, 0)"><path d="M0 108.2C-13.5 105.4 -26.9 102.5 -40.6 97.9C-54.2 93.3 -68 86.9 -76.5 76.5C-84.9 66.1 -88 51.7 -92.4 38.3C-96.8 24.9 -102.5 12.4 -108.2 0L0 0Z" fill="#FFE779"></path></g><g transform="translate(0, 600)"><path d="M0 -108.2C11.8 -100.6 23.6 -93.1 36.7 -88.7C49.9 -84.3 64.4 -83 75.7 -75.7C87 -68.3 95 -55 99.9 -41.4C104.8 -27.8 106.5 -13.9 108.2 0L0 0Z" fill="#FFE779"></path></g></svg>