<svg id="visual" viewBox="0 0 900 600" width="900" height="600" xmlns="http://www.w3.org/2000/svg" xmlns:xlink="http://www.w3.org/1999/xlink" version="1.1"><rect x="0" y="0" width="900" height="600" fill="#FFFFFF"></rect><path d="M0 417L30 429.5C60 442 120 467 180 472C240 477 300 462 360 450.2C420 438.3 480 429.7 540 434.5C600 439.3 660 457.7 720 460.3C780 463 840 450 870 443.5L900 437L900 601L870 601C840 601 780 601 720 601C660 601 600 601 540 601C480 601 420 601 360 601C300 601 240 601 180 601C120 601 60 601 30 601L0 601Z" fill="#161517" stroke-linecap="round" stroke-linejoin="miter"></path></svg>